<?xml version="1.0" encoding="UTF-8" standalone="no"?>
<svg width="48px" height="48px" viewBox="0 0 48 48" version="1.1" xmlns="http://www.w3.org/2000/svg" xmlns:xlink="http://www.w3.org/1999/xlink">
    <!-- Generator: sketchtool 43.1 (39012) - http://www.bohemiancoding.com/sketch -->
    <title>81E7AA6D-A54D-4E1A-8B86-969596D3514E</title>
    <desc>Created with sketchtool.</desc>
    <defs></defs>
    <g id="Symbols" stroke="none" stroke-width="1" fill="none" fill-rule="evenodd">
        <g id="icon/dark/multiple-collections" fill="#384048">
            <path d="M35.4069583,17.6764915 L12.4847083,17.6764915 C11.6959333,17.6764915 11,18.394697 11,19.1875 L11,33.0179924 C11,33.8107955 11.728,34.6515152 12.5166667,34.6515152 L35.375,34.6515152 C36.1370167,34.6515152 37,33.7840057 37,33.0179924 L37,19.1875 C37,18.4214867 36.168975,17.6764915 35.4069583,17.6764915 L35.4069583,17.6764915 Z M20.1,30.4043561 C20.0982667,31.2914678 19.72495,31.5410701 18.8470167,31.5410701 L15.2137333,31.5410701 C14.3339583,31.5410701 14.0333333,31.2927746 14.0333333,30.4043561 L14.0333333,21.8011364 C14.0333333,20.9127178 14.4536667,20.6032197 15.3333333,20.6032197 L18.8,20.6032197 C19.6796667,20.6032197 20.1,20.9127178 20.1,21.8011364 L20.1,30.4043561 L20.1,30.4043561 Z M26.1666667,30.4043561 C26.1649333,31.2914678 25.7916167,31.5410701 24.9136833,31.5410701 L22.1470667,31.5410701 C21.2672917,31.5410701 20.9666667,31.2927746 20.9666667,30.4043561 L20.9666667,27.8996212 C20.9666667,27.0112027 21.387,26.7017045 22.2666667,26.7017045 L24.8666667,26.7017045 C25.7463333,26.7017045 26.1666667,27.0112027 26.1666667,27.8996212 L26.1666667,30.4043561 L26.1666667,30.4043561 Z M26.1666667,24.3058712 C26.1649333,25.192983 25.7916167,25.4425852 24.9136833,25.4425852 L22.1470667,25.4425852 C21.2672917,25.4425852 20.9666667,25.1942898 20.9666667,24.3058712 L20.9666667,21.8011364 C20.9666667,20.9127178 21.387,20.6032197 22.2666667,20.6032197 L24.8666667,20.6032197 C25.7463333,20.6032197 26.1666667,20.9127178 26.1666667,21.8011364 L26.1666667,24.3058712 L26.1666667,24.3058712 Z M33.9666667,30.4043561 C33.9649333,31.2914678 33.5916167,31.5410701 32.7136833,31.5410701 L28.2138417,31.5410701 C27.3340667,31.5410701 27.0334417,31.2929924 27.0334417,30.4043561 L27.0334417,27.8996212 C27.0334417,27.0112027 27.453775,26.7017045 28.3334417,26.7017045 L32.666775,26.7017045 C33.5464417,26.7017045 33.966775,27.0112027 33.966775,27.8996212 L33.9666667,30.4043561 L33.9666667,30.4043561 Z M33.9666667,24.3058712 C33.9649333,25.192983 33.5916167,25.4425852 32.7136833,25.4425852 L28.2138417,25.4425852 C27.3340667,25.4425852 27.0334417,25.1945076 27.0334417,24.3058712 L27.0334417,21.8011364 C27.0334417,20.9127178 27.453775,20.6032197 28.3334417,20.6032197 L32.666775,20.6032197 C33.5464417,20.6032197 33.966775,20.9127178 33.966775,21.8011364 L33.9666667,24.3058712 Z M33.75,16.1382576 L14.25,16.1382576 C13.8910917,16.1382576 13.6,15.8457481 13.6,15.4848485 C13.6,15.1239489 13.8910917,14.8314394 14.25,14.8314394 L33.75,14.8314394 C34.1090167,14.8314394 34.4,15.1239489 34.4,15.4848485 C34.4,15.8457481 34.1090167,16.1382576 33.75,16.1382576 Z M31.6916667,13.3068182 L16.2,13.3068182 C15.8410917,13.3068182 15.55,13.0143087 15.55,12.6534091 C15.55,12.2925095 15.8410917,12 16.2,12 L31.6916667,12 C32.0506833,12 32.3416667,12.2925095 32.3416667,12.6534091 C32.3416667,13.0143087 32.0506833,13.3068182 31.6916667,13.3068182 Z" id="collections-fill"></path>
        </g>
    </g>
</svg>