<svg xmlns="http://www.w3.org/2000/svg" width="55" height="55" viewBox="0 0 55 55">
	<path id="path-1_1_" class="st1" d="M19.2,25.2c-1.2,0-2.1,1-2.1,2.2v0c0,1.2,0.9,2.2,2.1,2.2c1.2,0,2.1-1,2.1-2.2v0
		C21.3,26.2,20.4,25.2,19.2,25.2L19.2,25.2z M27.1,25.3h-1.2v2.2h1.2c0.8,0,1.2-0.5,1.2-1.1v0C28.3,25.7,27.8,25.3,27.1,25.3
		L27.1,25.3z M19.5,0C8.7,0,0,8.7,0,19.5S8.7,39,19.5,39S39,30.2,39,19.5S30.2,0,19.5,0L19.5,0z M14.9,25.3h-2.1v5.6h-1.5v-5.6
		H9.1v-1.4l5.8,0L14.9,25.3L14.9,25.3L14.9,25.3z M22.9,27.4c0,2-1.6,3.6-3.8,3.6c-2.2,0-3.7-1.6-3.7-3.6v0c0-2,1.6-3.6,3.8-3.6
		C21.4,23.8,22.9,25.4,22.9,27.4L22.9,27.4L22.9,27.4L22.9,27.4z M20.6,9.6l0,9.9c0,0.6-0.5,1.1-1.1,1.1c0,0,0,0,0,0
		c-0.6,0-1.1-0.5-1.1-1.1l0-9.9C16.9,11.1,15,12.9,15,13c-0.2,0.2-0.5,0.3-0.8,0.3c-0.3,0-0.6-0.1-0.8-0.3
		c-0.4-0.4-0.4-1.1,0-1.6c0.2-0.2,3.9-3.9,5-5c0.4-0.4,0.7-0.5,1-0.5l0.1,0l0.1,0c0.2,0,0.6,0.1,0.9,0.5c1.1,1.1,4.8,4.8,5,5
		c0.4,0.4,0.4,1.2,0,1.6c-0.4,0.4-1.2,0.4-1.6,0C23.9,12.9,22.1,11.1,20.6,9.6L20.6,9.6z M29.9,26.3c0,1.6-1.3,2.5-2.8,2.5h-1.2
		v2.1h-1.5v-7h2.9C28.9,23.9,29.9,24.9,29.9,26.3L29.9,26.3L29.9,26.3L29.9,26.3z"/>
</svg>
