<svg xmlns="http://www.w3.org/2000/svg" width="240" height="240" viewBox="0 0 240 240"><path fill="#333" d="M205.393 58.85l6.59 151.562c-.249.73-1.371 1.868-2.069 2.088H29.141c-.722-.165-1.896-1.289-2.126-2.019L33.608 58.85h171.785M186.555 15.5H52.446c-1.194 0-4.354.87-6.096 2.612-3.148 3.147-19.158 21.771-21.771 25.254-2.612 3.483-2.612 6.967-2.612 6.967L15 210.566c.027 7.049 6.976 13.852 13.933 13.934h181.133c6.957 0 13.885-7.049 13.934-13.934l-6.967-160.233s0-3.483-3.483-6.967c-2.999-3-17.95-22.226-20.899-25.254-1.693-1.737-3.485-2.612-6.096-2.612zM56.8 46.85V28.49c0-1.669.871-2.54 2.468-2.54h120.175c1.887 0 2.758.871 2.758 2.685V46.85H56.8zm134.108 0V30.304L203.97 46.85h-13.062zm-156.75 0l13.934-15.675V46.85H34.158z"/><path clip-rule="evenodd" fill="none" stroke="#333" stroke-width="12" stroke-linecap="round" stroke-miterlimit="10" d="M67.25 95.617s6.833 48.857 52.25 48.766c45.146-.091 52.25-48.766 52.25-48.766"/></svg>