<svg xmlns="http://www.w3.org/2000/svg" xmlns:xlink="http://www.w3.org/1999/xlink" width="48" height="48" viewBox="0 0 48 48">
    <path id="a" d="M5.732 6.091a.995.995 0 0 1-.008-.038l-.627-3.136h-3.93a1 1 0 1 1 0-2h4.75a1 1 0 0 1 .98.804l.631 3.154h21.347a1 1 0 0 1 .98 1.196l-1.583 7.917a1 1 0 0 1-.98.804H9.512l.391 1.958h17.389a1 1 0 0 1 0 2H9.083a1 1 0 0 1-.98-.804l-.788-3.938a.995.995 0 0 1-.008-.038L5.732 6.09zm7.31 17.992a2.375 2.375 0 1 1 0-4.75 2.375 2.375 0 0 1 0 4.75zm10.291 0a2.375 2.375 0 1 1 0-4.75 2.375 2.375 0 0 1 0 4.75z"/>
</svg>