<?xml version="1.0" encoding="utf-8"?>
<!-- Generator: Adobe Illustrator 16.0.4, SVG Export Plug-In . SVG Version: 6.00 Build 0)  -->
<!DOCTYPE svg PUBLIC "-//W3C//DTD SVG 1.1//EN" "http://www.w3.org/Graphics/SVG/1.1/DTD/svg11.dtd">
<svg version="1.1" id="Layer_1" xmlns="http://www.w3.org/2000/svg" xmlns:xlink="http://www.w3.org/1999/xlink" x="0px" y="0px"
	 width="240px" height="240px" viewBox="0 0 240 240" enable-background="new 0 0 240 240" xml:space="preserve">
<g>
	<path d="M224,80H120c-11.028,0-20,8.523-20,19v57c0,11.402,8.598,20,20,20h39.148
		c0.041,0.027,0.086,0.059,0.134,0.092l35.557,34.23c1.142,1.098,2.64,1.678,4.162,1.678c0.792,0,1.591-0.156,2.349-0.479
		c2.213-0.942,3.65-3.115,3.65-5.521l0.009-30H220c0.116,0,0.232-0.003,0.35-0.01c5.141-0.301,10.115-2.816,14.012-7.086
		c3.531-3.869,5.64-8.693,5.64-12.904V98C240,86.733,231.865,80,224,80z"/>
	<path d="M120,74h48V46c0-9.925-7.626-18-17-18H17C7.626,28,0,36.075,0,46v72c0,10.292,7.703,18.986,16.821,18.986
		h25.855c0.39,0,1.001,0.281,1.324,0.547V166c0,2.382,1.409,4.538,3.59,5.495c0.775,0.34,1.595,0.505,2.408,0.505
		c1.478,0,2.937-0.546,4.066-1.587l36.279-33.414c0.984-0.001,2.232-0.002,3.656-0.003V99H94C94,85.215,105.664,74,120,74z"/>
</g>
</svg>
