<?xml version="1.0" encoding="utf-8"?>
<!-- Generator: Adobe Illustrator 16.0.4, SVG Export Plug-In . SVG Version: 6.00 Build 0)  -->
<!DOCTYPE svg PUBLIC "-//W3C//DTD SVG 1.1//EN" "http://www.w3.org/Graphics/SVG/1.1/DTD/svg11.dtd">
<svg version="1.1" id="Layer_1" xmlns="http://www.w3.org/2000/svg" xmlns:xlink="http://www.w3.org/1999/xlink" x="0px" y="0px"
	 width="240px" height="240px" viewBox="0 0 240 240" enable-background="new 0 0 240 240" xml:space="preserve">
<path fill="#008a44" d="M120,0C53.726,0,0,53.726,0,120c0,66.273,53.726,120,120,120c66.273,0,120-53.727,120-120
	C240,53.726,186.273,0,120,0z M208.407,52.949c2.343,2.343,2.343,6.142-0.001,8.485l-94.202,94.192
	c-1.171,1.171-2.707,1.757-4.242,1.757c-1.536,0-3.071-0.586-4.243-1.758l-32.007-32.008c-2.343-2.343-2.343-6.142,0-8.485
	s6.142-2.343,8.485,0l27.765,27.765l89.959-89.949C202.265,50.605,206.064,50.606,208.407,52.949z M190.664,195.26
	c-19.291,18.121-44.611,28.101-71.296,28.101c-27.901,0-54.049-10.781-73.626-30.358c-19.578-19.577-30.359-45.726-30.359-73.627
	c0-27.902,10.782-54.049,30.359-73.626C65.319,26.171,91.467,15.39,119.368,15.39c10.962,0,21.743,1.674,32.046,4.977
	c3.156,1.012,4.895,4.39,3.883,7.545c-1.012,3.155-4.389,4.894-7.545,3.882c-9.117-2.922-18.667-4.404-28.384-4.404
	c-24.696,0-47.831,9.533-65.141,26.844c-17.311,17.311-26.845,40.445-26.845,65.141s9.534,47.831,26.845,65.142
	c17.311,17.311,40.445,26.844,65.141,26.844c23.62,0,46.022-8.824,63.08-24.847c16.982-15.951,27.177-37.595,28.705-60.942
	c0.217-3.308,3.091-5.805,6.379-5.596c3.307,0.217,5.812,3.072,5.596,6.379C221.399,152.749,209.871,177.22,190.664,195.26z"/>
</svg>
