<?xml version="1.0" encoding="utf-8"?>
<!-- Generator: Adobe Illustrator 16.0.4, SVG Export Plug-In . SVG Version: 6.00 Build 0)  -->
<!DOCTYPE svg PUBLIC "-//W3C//DTD SVG 1.1//EN" "http://www.w3.org/Graphics/SVG/1.1/DTD/svg11.dtd">
<svg version="1.1" id="Layer_1" xmlns="http://www.w3.org/2000/svg" xmlns:xlink="http://www.w3.org/1999/xlink" x="0px" y="0px"
	 width="240px" height="240px" viewBox="0 0 240 240" enable-background="new 0 0 240 240" xml:space="preserve">
<g>
	<path fill="#008a44" d="M217.532,119.976c-3.288-0.209-6.162,2.288-6.379,5.596c-1.528,23.348-11.722,44.991-28.704,60.942
		c-17.058,16.021-39.46,24.846-63.08,24.846c-24.696,0-47.831-9.533-65.142-26.844s-26.845-40.444-26.845-65.141
		s9.534-47.831,26.845-65.141S94.673,27.39,119.369,27.39c9.715,0,19.265,1.481,28.384,4.404c3.162,1.012,6.533-0.728,7.545-3.883
		c1.011-3.156-0.728-6.534-3.883-7.545c-10.305-3.302-21.087-4.976-32.046-4.976c-27.901,0-54.049,10.781-73.627,30.358
		s-30.359,45.725-30.359,73.626c0,27.901,10.782,54.049,30.359,73.626s45.726,30.358,73.627,30.358
		c26.685,0,52.005-9.979,71.296-28.1c19.206-18.04,30.735-42.512,32.463-68.905C223.344,123.048,220.839,120.192,217.532,119.976z"
		/>
	<path fill="#008a44" d="M82.198,115.132c-2.343-2.343-6.142-2.343-8.485,0s-2.343,6.142,0,8.485l32.007,32.008
		c1.172,1.172,2.707,1.758,4.243,1.758c1.535,0,3.071-0.586,4.242-1.757l94.202-94.191c2.344-2.343,2.344-6.142,0.001-8.485
		c-2.343-2.343-6.143-2.344-8.485,0l-89.959,89.948L82.198,115.132z"/>
</g>
</svg>
