<?xml version="1.0" encoding="utf-8"?>
<!-- Generator: Adobe Illustrator 16.0.4, SVG Export Plug-In . SVG Version: 6.00 Build 0)  -->
<!DOCTYPE svg PUBLIC "-//W3C//DTD SVG 1.1//EN" "http://www.w3.org/Graphics/SVG/1.1/DTD/svg11.dtd">
<svg version="1.1" id="Layer_1" xmlns="http://www.w3.org/2000/svg" xmlns:xlink="http://www.w3.org/1999/xlink" x="0px" y="0px"
	 width="240px" height="240px" viewBox="0 0 240 240" enable-background="new 0 0 240 240" xml:space="preserve">
<path d="M234,114h-10.174C220.859,61.098,178.902,19.141,126,16.174V6c0-3.313-2.687-6-6-6s-6,2.687-6,6v10.174
	C61.098,19.141,19.141,61.098,16.174,114H6c-3.313,0-6,2.687-6,6s2.687,6,6,6h10.174c2.967,52.902,44.924,94.859,97.826,97.826V234
	c0,3.313,2.687,6,6,6s6-2.687,6-6v-10.174c52.902-2.967,94.859-44.924,97.826-97.826H234c3.313,0,6-2.687,6-6S237.313,114,234,114z
	 M185.157,185.157c-15.899,15.898-36.723,25.215-59.157,26.631V202c0-3.313-2.687-6-6-6s-6,2.687-6,6v9.788
	c-22.435-1.416-43.258-10.731-59.157-26.631C38.943,169.258,29.628,148.435,28.212,126H38c3.313,0,6-2.687,6-6s-2.687-6-6-6h-9.788
	c1.416-22.435,10.731-43.258,26.631-59.157C70.742,38.943,91.565,29.628,114,28.212V38c0,3.313,2.687,6,6,6s6-2.687,6-6v-9.788
	c22.435,1.416,43.258,10.731,59.157,26.631c15.899,15.899,25.215,36.723,26.631,59.157H202c-3.313,0-6,2.687-6,6s2.687,6,6,6h9.788
	C210.372,148.435,201.057,169.258,185.157,185.157z"/>
</svg>
