<?xml version="1.0" encoding="UTF-8" standalone="no"?>
<svg width="48px" height="48px" viewBox="0 0 48 48" version="1.1" xmlns="http://www.w3.org/2000/svg" xmlns:xlink="http://www.w3.org/1999/xlink">
    <!-- Generator: sketchtool 43 (38999) - http://www.bohemiancoding.com/sketch -->
    <title>D117C0A9-CFCB-4CF5-A910-0DE33D72E7B0</title>
    <desc>Created with sketchtool.</desc>
    <defs></defs>
    <g id="Symbols" stroke="none" stroke-width="1" fill="none" fill-rule="evenodd">
        <g id="icon/dark/coupon-fill" fill="#384048">
            <path d="M20.7250199,11.9130525 L20.7250199,11 L19.8254887,11 L13.8995312,11 L13,11 L13,11.9130525 L13,34.0869475 L13,35 L13.8995312,35 L33.1004688,35 L34,35 L34,34.0869475 L34,11.9130525 L34,11 L33.1004688,11 L26.9905371,11 L26.0910059,11 L26.0910059,11.9130525 C26.0910059,13.4173828 24.8897989,14.6368795 23.4085101,14.6368795 C21.926342,14.6368795 20.7250199,13.4174998 20.7250199,11.9130525 Z M22.7780155,24.7004508 L26.781712,19.076181 L28.4541422,19.076181 L23.7916096,25.4720731 L19.8048063,31.0791958 L18.1323762,31.0791958 L22.7780155,24.7004508 Z M26.8830714,29.8960414 C26.1228759,29.8960414 25.5822924,29.1244191 25.5822924,28.1470307 L25.5822924,28.1127364 C25.5822924,27.1867895 26.0553029,26.39802 26.8492849,26.39802 C27.6094805,26.39802 28.150064,27.1867895 28.150064,28.1470307 L28.150064,28.181325 C28.150064,29.1072719 27.6770534,29.8960414 26.8830714,29.8960414 Z M19.7034469,25.0776884 C18.04791,25.0776884 16.9329566,23.6887681 16.9329566,22.0426403 L16.9329566,22.008346 C16.9329566,20.3279239 18.0648032,18.9390037 19.7372334,18.9390037 C21.4096636,18.9390037 22.5077238,20.3279239 22.5077238,21.9740517 L22.5077238,22.008346 C22.5077238,23.6716209 21.3927703,25.0776884 19.7034469,25.0776884 Z M19.7034469,20.2593353 C20.4636425,20.2593353 21.004226,21.0481048 21.004226,22.008346 L21.004226,22.0426403 C21.004226,22.9685872 20.5312154,23.7573567 19.7372334,23.7573567 C18.9770379,23.7573567 18.4364544,22.9857344 18.4364544,22.008346 L18.4364544,21.9740517 C18.4364544,21.0481048 18.9094649,20.2593353 19.7034469,20.2593353 Z M26.8492849,31.2163731 C25.193748,31.2163731 24.0787946,29.8274528 24.0787946,28.181325 L24.0787946,28.1470307 C24.0787946,26.4666086 25.2106412,25.0776884 26.8830714,25.0776884 C28.5386083,25.0776884 29.6535618,26.4666086 29.6535618,28.1127364 L29.6535618,28.1470307 C29.6535618,29.8103056 28.5217151,31.2163731 26.8492849,31.2163731 Z" id="Combined-Shape"></path>
        </g>
    </g>
</svg>