<?xml version="1.0" encoding="utf-8"?>
<!-- Generator: Adobe Illustrator 16.0.4, SVG Export Plug-In . SVG Version: 6.00 Build 0)  -->
<!DOCTYPE svg PUBLIC "-//W3C//DTD SVG 1.1//EN" "http://www.w3.org/Graphics/SVG/1.1/DTD/svg11.dtd">
<svg version="1.1" id="Layer_1" xmlns="http://www.w3.org/2000/svg" xmlns:xlink="http://www.w3.org/1999/xlink" x="0px" y="0px"
	 width="240px" height="240px" viewBox="0 0 240 240" enable-background="new 0 0 240 240" xml:space="preserve">
<g>
	<path d="M218.834,70.257l-49.211-48.302C165.857,18.193,160.988,16,155.658,16l-70.542,0.118
		c-5.016,0-9.932,2.033-13.483,5.581L23.529,68.895c-4.847,4.842-7.518,11.282-7.518,18.131v67.197c0,5.57,2.172,10.805,6.112,14.74
		l48.648,48.594c4.15,4.149,9.674,6.435,15.556,6.435h68.237c5.945,0,11.531-2.315,15.725-6.509l46.972-46.905
		c4.982-4.979,7.728-11.593,7.728-18.636v-66.85C224.988,79.49,222.8,74.218,218.834,70.257z M212.988,151.941
		c0,3.83-1.494,7.435-4.206,10.144l-46.978,46.912c-1.959,1.958-4.462,2.993-7.238,2.993H86.328c-2.715,0-5.16-1.01-7.075-2.926
		l-48.648-48.592c-1.696-1.695-2.593-3.855-2.593-6.25V87.026c0-3.626,1.408-7.038,3.966-9.609l48.059-47.152l0.039-0.038
		l0.038-0.039c1.298-1.296,3.168-2.07,5.022-2.07L155.671,28c2.011,0.003,3.851,0.826,5.472,2.445l0.037,0.037l0.037,0.037
		l49.167,48.259c1.704,1.717,2.604,3.899,2.604,6.314V151.941z"/>
	<ellipse cx="120.934" cy="171.214" rx="7.812" ry="7.804"/>
	<path d="M120.934,153.802c3.313,0,6-2.687,6-6V68.027c0-3.313-2.687-6-6-6s-6,2.687-6,6v79.775
		C114.934,151.115,117.62,153.802,120.934,153.802z"/>
</g>
</svg>
