<svg xmlns="http://www.w3.org/2000/svg" xmlns:xlink="http://www.w3.org/1999/xlink" width="48" height="48" viewBox="0 0 48 48">
    <g fill="none" fill-rule="evenodd" transform="translate(11 11)">
        <mask id="b" fill="#fff">
        </mask>
        <path fill="#fff" id="a" d="M24.267 0H1.733C.873 0 0 .854 0 1.733v22.534C0 25.117.836 26 1.625 26h22.642c.855-.015 1.733-.847 1.733-1.733V1.625C26 .863 25.128 0 24.267 0zM13 21.017a.975.975 0 1 1 0-1.95.975.975 0 0 1 0 1.95zm1.75-7.59c-.408.458-.967 1.085-1 1.317v2.59a.75.75 0 0 1-1.5 0v-2.6c0-.756.61-1.44 1.381-2.306.93-1.043 2.086-2.34 2.086-3.761 0-1.08-1.116-2.284-2.717-2.284-2.742 0-2.928 2.24-2.935 2.336a.75.75 0 0 1-1.496-.104c.002-.037.305-3.732 4.431-3.732 1.026 0 2.07.38 2.864 1.04.872.728 1.353 1.702 1.353 2.744 0 1.992-1.425 3.591-2.466 4.76z"/>
        
    </g>
</svg>
