<svg xmlns="http://www.w3.org/2000/svg" width="12" height="16" viewBox="0 0 12 16">
    <path fill="#384048" fill-rule="evenodd" d="M6.363 0C2.133 0 0 3.13 0 5.741c0 1.58.58 2.987 1.823 3.511.204.086.387.003.446-.23.041-.161.138-.568.182-.737.06-.23.036-.312-.128-.513-.359-.436-.588-1.001-.588-1.802 0-2.322 1.684-4.401 4.384-4.401 2.39 0 3.705 1.508 3.705 3.521 0 2.65-1.137 4.887-2.823 4.887-.932 0-1.629-.795-1.406-1.77.268-1.165.787-2.421.787-3.262 0-.752-.392-1.38-1.201-1.38-.952 0-1.717 1.017-1.717 2.38 0 .867.284 1.454.284 1.454l-1.146 5.007c-.34 1.487-.05 3.31-.026 3.493.014.11.15.135.211.053.088-.119 1.222-1.564 1.608-3.008.109-.409.626-2.526.626-2.526.31.609 1.213 1.145 2.175 1.145C10.058 11.563 12 8.87 12 5.265 12 2.539 9.763 0 6.363 0"/>
</svg>
