<svg width="25" height="23" viewBox="0 0 25 23" xmlns="http://www.w3.org/2000/svg"><title>521C0A39-AC08-4AF1-B60C-5DCC8FDA86F0</title><path d="M22.149.329c.212-.219.446-.329.699-.329l.056.002c.277.016.512.126.707.327.228.2.341.443.341.729 0 .284-.113.544-.341.778l-4.093 4.223c.487.302.974.646 1.461 1.031.487.385.911.745 1.268 1.08.357.336.706.671 1.047 1.006.341.335.609.612.805.83.194.217.373.419.535.603l.244.276c.162.168.162.386 0 .654-.195.234-.438.519-.731.854-.292.335-.877.913-1.754 1.735a22.51 22.51 0 0 1-2.68 2.162c-.91.619-2.023 1.18-3.339 1.683-1.315.503-2.607.754-3.874.754-1.364 0-2.826-.319-4.386-.955l-4.776 4.977a1.085 1.085 0 0 1-.731.251c-.293 0-.536-.084-.731-.251a1.259 1.259 0 0 1-.293-.83c0-.318.098-.544.293-.678L22.149.329zm-7.115 13.522c-.714.737-1.576 1.106-2.582 1.106-.456 0-.91-.084-1.365-.251l-.78.804a4.263 4.263 0 0 0 2.145.552c.877 0 1.672-.225 2.387-.677a5.057 5.057 0 0 0 1.706-1.785 4.777 4.777 0 0 0 .634-2.413c0-.771-.196-1.509-.585-2.212l-.78.804c.194.503.293.972.293 1.408 0 1.039-.358 1.927-1.073 2.664zm-4.508-9.953a9.991 9.991 0 0 1 1.974-.202c1.267 0 2.599.269 3.996.805l-2.193 2.262c-.649-.268-1.251-.402-1.803-.402-1.3 0-2.404.469-3.313 1.408-.911.938-1.365 2.078-1.365 3.418 0 .603.113 1.206.341 1.809L5.19 16.113a16.542 16.542 0 0 1-2.607-2.035c-.829-.788-1.406-1.366-1.731-1.735a31.47 31.47 0 0 1-.731-.854c-.162-.202-.162-.42 0-.654l.22-.276c.146-.185.317-.386.511-.603.196-.218.456-.487.781-.805a28.08 28.08 0 0 1 1.023-.955c.357-.319.764-.662 1.218-1.031a17.057 17.057 0 0 1 3.022-1.96 16.005 16.005 0 0 1 1.754-.779c.585-.218 1.21-.394 1.876-.528zm-.608 4.65c.713-.721 1.575-1.081 2.582-1.081.358 0 .683.05.974.151L9.04 12.193a3.06 3.06 0 0 1-.195-1.006c0-1.039.358-1.918 1.073-2.639z" fill="#006C7C" fill-rule="evenodd"/></svg>