<svg width="48" height="48" viewBox="0 0 48 48" xmlns="http://www.w3.org/2000/svg"><title>FD9D8A57-5829-4DE8-B2C0-FF737BC815BB</title><path d="M13 13.99c0-.546.451-.99.99-.99h4.02c.546 0 .99.451.99.99v4.02c0 .546-.451.99-.99.99h-4.02a.996.996 0 0 1-.99-.99v-4.02zm0 8c0-.546.451-.99.99-.99h4.02c.546 0 .99.451.99.99v4.02c0 .546-.451.99-.99.99h-4.02a.996.996 0 0 1-.99-.99v-4.02zm8-8c0-.546.45-.99 1.007-.99h11.986c.556 0 1.007.451 1.007.99v4.02c0 .546-.45.99-1.007.99H22.007A1.004 1.004 0 0 1 21 18.01v-4.02zm0 8c0-.546.45-.99 1.007-.99h11.986c.556 0 1.007.451 1.007.99v4.02c0 .546-.45.99-1.007.99H22.007A1.004 1.004 0 0 1 21 26.01v-4.02zm-8 8c0-.546.451-.99.99-.99h4.02c.546 0 .99.451.99.99v4.02c0 .546-.451.99-.99.99h-4.02a.996.996 0 0 1-.99-.99v-4.02zm8 0c0-.546.45-.99 1.007-.99h11.986c.556 0 1.007.451 1.007.99v4.02c0 .546-.45.99-1.007.99H22.007A1.004 1.004 0 0 1 21 34.01v-4.02z" fill="#384048" fill-rule="evenodd"/></svg>