<?xml version="1.0" encoding="UTF-8" standalone="no"?>
<svg width="26px" height="26px" viewBox="0 0 26 26" version="1.1" xmlns="http://www.w3.org/2000/svg" xmlns:xlink="http://www.w3.org/1999/xlink">
    <!-- Generator: sketchtool 42 (36781) - http://www.bohemiancoding.com/sketch -->
    <title>792B306D-00FA-43E7-BB08-0058D9A5FCA7</title>
    <desc>Created with sketchtool.</desc>
    <defs></defs>
    <g id="Design-Foundations" stroke="none" stroke-width="1" fill="none" fill-rule="evenodd">
        <g id="Design-Foundations---Iconography-Glyph" transform="translate(-395.000000, -1548.000000)">
            <g id="Alert-Icons" transform="translate(80.000000, 1499.000000)">
                <g id="error" transform="translate(304.000000, 38.000000)">
                    <g id="icon/messaging/error">
                        <g id="Path">
                            <g>
                                <rect id="Bounding-Box" x="0" y="0" width="48" height="48"></rect>
                                <g id="error-fill" transform="translate(11.000000, 11.000000)" fill="#A2000F">
                                    <path d="M25.2315694,6.74967464 L19.1096268,0.740813397 C18.6411292,0.272813397 18.0354163,0 17.3723541,0 L8.59679426,0.0146794258 C7.97279426,0.0146794258 7.36123445,0.267588517 6.91948325,0.708966507 L0.935253589,6.58023923 C0.332277512,7.1825933 0,7.98374163 0,8.83577033 L0,17.1952057 C0,17.8881244 0.270200957,18.5393684 0.760344498,19.02889 L6.8122488,25.0739522 C7.32851675,25.5902201 8.01571292,25.8744785 8.74744498,25.8744785 L17.2363828,25.8744785 C17.9759522,25.8744785 18.6708612,25.586488 19.1924785,25.0648708 L25.0358852,19.2296746 C25.6556555,18.6102775 25.9971388,17.7876077 25.9971388,16.911445 L25.9971388,8.59517703 C25.9971388,7.89840191 25.7249474,7.24255502 25.2315694,6.74967464 L25.2315694,6.74967464 Z M12.3062105,6.47225837 C12.3062105,6.06011483 12.6404785,5.72584689 13.052622,5.72584689 C13.4647656,5.72584689 13.7990335,6.06011483 13.7990335,6.47225837 L13.7990335,16.3962967 C13.7990335,16.8084402 13.4647656,17.1427081 13.052622,17.1427081 C12.6404785,17.1427081 12.3062105,16.8084402 12.3062105,16.3962967 L12.3062105,6.47225837 L12.3062105,6.47225837 Z M13.052622,20.2797512 C12.5159522,20.2797512 12.0807943,19.8452153 12.0807943,19.3090431 C12.0807943,18.7727464 12.5159522,18.3380861 13.052622,18.3380861 C13.5894163,18.3380861 14.0245742,18.7727464 14.0245742,19.3090431 C14.0245742,19.8450909 13.5894163,20.2797512 13.052622,20.2797512 L13.052622,20.2797512 Z"></path>
                                </g>
                            </g>
                        </g>
                    </g>
                </g>
            </g>
        </g>
    </g>
</svg>