<?xml version="1.0" encoding="UTF-8"?>
<svg width="32px" height="32px" viewBox="0 0 32 32" version="1.1" xmlns="http://www.w3.org/2000/svg" xmlns:xlink="http://www.w3.org/1999/xlink">
    <!-- Generator: Sketch 44.1 (41455) - http://www.bohemiancoding.com/sketch -->
    <title>Icon</title>
    <desc>Created with Sketch.</desc>
    <path d="M15.9992308,0 C7.17723077,0 0,7.17723077 0,15.9992308 C0,24.8216923 7.17723077,31.9992308 15.9992308,31.9992308 C24.8215385,31.9992308 31.9992308,24.8216923 31.9992308,15.9992308 C31.9990769,7.17723077 24.8215385,0 15.9992308,0 L15.9992308,0 Z M15.9992308,1.84615385 C23.8036923,1.84615385 30.1530769,8.19523077 30.1530769,15.9992308 C30.1530769,19.2096923 29.078,22.1733846 27.2696923,24.5507692 C25.4638462,21.1115385 21.2975385,18.5983077 19.7330769,17.8601538 L19.4173846,17.7098462 C19.3586154,17.6812308 19.3213846,17.654 19.3015385,17.6363077 C19.3150769,17.5916923 19.36,17.4850769 19.5067692,17.3183077 L19.6558462,17.1503077 C20.6413846,16.0441538 22.2910769,14.1924615 22.3553846,10.9581538 C22.4229231,7.56553846 19.966,3.81076923 16.2006154,3.62815385 L16.1966154,3.628 L15.9293846,3.62876923 L15.9223077,3.62892308 C12.176,3.81123077 9.732,7.56584615 9.79969231,10.9581538 C9.86384615,14.188 11.5124615,16.0412308 12.4989231,17.15 L12.6487692,17.3190769 C12.7964615,17.486 12.8415385,17.5923077 12.8550769,17.6367692 C12.8352308,17.6543077 12.7978462,17.6815385 12.7381538,17.7101538 L12.4967692,17.8258462 C10.8973846,18.5884615 6.612,21.1221538 4.74138462,24.5664615 C2.926,22.1864615 1.84615385,19.2167692 1.84615385,15.9992308 C1.84615385,8.19507692 8.19507692,1.84615385 15.9992308,1.84615385 L15.9992308,1.84615385 Z" id="path-1"></path>
</svg>
