<?xml version="1.0" encoding="UTF-8" standalone="no"?>
<svg width="21px" height="24px" viewBox="0 0 21 24" version="1.1" xmlns="http://www.w3.org/2000/svg" xmlns:xlink="http://www.w3.org/1999/xlink">
    <!-- Generator: sketchtool 3.7.2 (28276) - http://www.bohemiancoding.com/sketch -->
    <title>5F400C74-D128-4777-800D-7BC41E359DF9</title>
    <desc>Created with sketchtool.</desc>
    <defs></defs>
    <g id="tablet-homepage" stroke="none" stroke-width="1" fill="none" fill-rule="evenodd">
        <g id="t-hp-land" transform="translate(-795.000000, -71.000000)">
            <g id="icons-header" transform="translate(783.000000, 70.000000)">
                <g id="icon-coupon-new" transform="translate(13.000000, 0.000000)">
                    <g id="Group-9" stroke-width="1" stroke="#333333" stroke-linecap="round" stroke-linejoin="round">
                        <path d="M9.251094,6.184068 C7.340694,6.184068 5.792214,4.635588 5.792214,2.725188 L0.071574,2.725188 L0.071574,23.813828 L18.607254,23.813828 L18.607254,2.725188 L12.709014,2.725188 C12.709014,4.635588 11.160534,6.184068 9.251094,6.184068 Z" id="Stroke-3" stroke-width="1.5"></path>
                    </g>
                    <path d="M7.344,14.44 C8.544,14.44 9.336,13.456 9.336,12.292 L9.336,12.268 C9.336,11.116 8.556,10.144 7.368,10.144 C6.18,10.144 5.376,11.116 5.376,12.292 L5.376,12.316 C5.376,13.468 6.168,14.44 7.344,14.44 L7.344,14.44 Z M7.344,11.068 C7.884,11.068 8.268,11.62 8.268,12.292 L8.268,12.316 C8.268,12.964 7.932,13.516 7.368,13.516 C6.828,13.516 6.444,12.976 6.444,12.292 L6.444,12.268 C6.444,11.62 6.78,11.068 7.344,11.068 L7.344,11.068 Z M9.528,14.176 L6.228,18.64 L7.416,18.64 L10.248,14.716 L13.56,10.24 L12.372,10.24 L9.528,14.176 Z M12.42,18.736 C13.608,18.736 14.412,17.752 14.412,16.588 L14.412,16.564 C14.412,15.412 13.62,14.44 12.444,14.44 C11.256,14.44 10.452,15.412 10.452,16.588 L10.452,16.612 C10.452,17.764 11.244,18.736 12.42,18.736 L12.42,18.736 Z M12.444,17.812 C11.904,17.812 11.52,17.272 11.52,16.588 L11.52,16.564 C11.52,15.916 11.856,15.364 12.42,15.364 C12.96,15.364 13.344,15.916 13.344,16.588 L13.344,16.612 C13.344,17.26 13.008,17.812 12.444,17.812 L12.444,17.812 Z" id="%" fill="#333333"></path>
                </g>
            </g>
        </g>
    </g>
</svg>