<svg xmlns="http://www.w3.org/2000/svg" width="19" height="15" viewBox="0 0 19 15">
    <path fill="#384048" fill-rule="evenodd" d="M16.076 2.434A3.591 3.591 0 0 0 17.683.462a7.43 7.43 0 0 1-2.32.865A3.694 3.694 0 0 0 12.694.202c-2.019 0-3.655 1.595-3.655 3.564 0 .28.032.551.095.812A10.464 10.464 0 0 1 1.602.854a3.479 3.479 0 0 0-.495 1.792 3.54 3.54 0 0 0 1.626 2.966 3.71 3.71 0 0 1-1.655-.446v.045c0 1.727 1.26 3.168 2.931 3.495a3.748 3.748 0 0 1-1.65.061c.465 1.416 1.814 2.446 3.414 2.475a7.451 7.451 0 0 1-4.54 1.525c-.294 0-.585-.016-.871-.05a10.536 10.536 0 0 0 5.602 1.602c6.722 0 10.398-5.43 10.398-10.14 0-.155-.004-.308-.01-.461a7.326 7.326 0 0 0 1.823-1.845 7.454 7.454 0 0 1-2.1.561"/>
</svg>
