<svg width="25" height="14" viewBox="0 0 25 14" xmlns="http://www.w3.org/2000/svg"><title>4EDDAB3D-B9A2-4E05-8FA8-7E6E4AF11272</title><path d="M24.854 6.718c.195.188.195.376 0 .564-.195.25-.381.47-.56.658-.178.187-.584.595-1.217 1.221a13.809 13.809 0 0 1-1.996 1.644c-.698.47-1.501.971-2.41 1.504-.91.532-1.9.947-2.97 1.245a11.977 11.977 0 0 1-3.213.446c-1.266 0-2.556-.235-3.871-.705-1.314-.47-2.41-.978-3.286-1.526a22.206 22.206 0 0 1-2.702-2.021C1.704 8.95 1.119 8.417.876 8.151a23.556 23.556 0 0 1-.754-.869c-.163-.157-.163-.345 0-.564.259-.313.51-.603.754-.869s.828-.799 1.753-1.597A22.206 22.206 0 0 1 5.33 2.231c.876-.548 1.972-1.056 3.286-1.526C9.932.235 11.222 0 12.487 0c1.267 0 2.549.227 3.847.681 1.298.454 2.418.979 3.359 1.574a23.183 23.183 0 0 1 2.654 1.95c.827.704 1.428 1.26 1.8 1.668.374.407.61.689.707.845M12.488 11.51c1.298 0 2.402-.438 3.31-1.315.909-.877 1.364-1.942 1.364-3.195s-.455-2.318-1.363-3.195c-.91-.877-2.013-1.315-3.311-1.315s-2.402.438-3.311 1.315C8.267 4.682 7.814 5.747 7.814 7s.454 2.318 1.363 3.195c.909.877 2.013 1.315 3.31 1.315M16.14 7c0 .971-.357 1.801-1.071 2.49-.714.689-1.574 1.033-2.58 1.033s-1.866-.344-2.58-1.033S8.836 7.971 8.836 7c0-.971.358-1.801 1.072-2.49.714-.689 1.574-1.033 2.58-1.033s1.866.344 2.58 1.033 1.07 1.519 1.07 2.49" fill="#006C7C" fill-rule="evenodd"/></svg>