<svg xmlns="http://www.w3.org/2000/svg" width="48" height="48" viewBox="0 0 48 48">
    <path fill="#333" fill-rule="evenodd" d="M24.071 11.417c2.34 0 4.501.924 6.084 2.604 1.64 1.741 2.545 4.191 2.545 6.899 0 2.332-1.631 5.837-4.716 10.135a69.27 69.27 0 0 1-3.913 4.929 69.342 69.342 0 0 1-3.913-4.922c-3.085-4.292-4.716-7.789-4.716-10.113 0-2.703.905-5.157 2.547-6.908a8.251 8.251 0 0 1 6.082-2.624m0-1.404c5.523 0 10 4.454 10 10.907 0 6.452-10 17.143-10 17.143s-10-10.68-10-17.114c0-6.433 4.477-10.936 10-10.936zm0 15.657c3.022 0 5.48-2.516 5.48-5.609 0-3.092-2.458-5.609-5.48-5.609-3.022 0-5.48 2.517-5.48 5.61 0 3.092 2.458 5.608 5.48 5.608zm0-9.814c-2.266 0-4.109 1.886-4.109 4.205 0 2.32 1.843 4.205 4.109 4.205s4.109-1.886 4.109-4.205-1.843-4.205-4.109-4.205z"/>
</svg>
