<svg xmlns="http://www.w3.org/2000/svg" width="240" height="240" viewBox="0 0 240 240"><path fill="#333" d="M120 12.091c20.479 0 39.384 7.908 53.234 22.268C187.593 49.246 195.5 70.192 195.5 93.341c0 19.939-14.269 49.904-41.263 86.653-12.925 17.596-25.982 32.864-34.24 42.139-8.259-9.266-21.314-24.515-34.237-42.082-26.992-36.694-41.26-66.591-41.26-86.46 0-23.114 7.915-44.091 22.286-59.066C80.669 20.059 99.567 12.091 120 12.091m0-12c-48.325 0-87.5 38.5-87.5 93.5s87.502 146.317 87.502 146.317 87.498-91.4 87.498-146.567S168.324.091 120 .091z"/><circle fill="none" stroke="#333" stroke-width="12" stroke-miterlimit="10" cx="120" cy="86" r="41.953"/></svg>