<svg width="48" height="48" viewBox="0 0 48 48" xmlns="http://www.w3.org/2000/svg"><title>5EA0826A-68F0-4C29-A591-BCF4DC17EA64</title><g fill="none" fill-rule="evenodd"><path d="M0 0h48v48H0z"/><g transform="translate(14 11)" fill="#FFF"><rect y="10" width="20" height="16" rx="2"/><path d="M6 7.006v9.988A4.004 4.004 0 0 0 10 21c2.204 0 4-1.796 4-4.006V7.006A4.004 4.004 0 0 0 10 3C7.796 3 6 4.796 6 7.006zm-3 0C3 3.136 6.142 0 10 0c3.866 0 7 3.138 7 7.006v9.988C17 20.864 13.858 24 10 24c-3.866 0-7-3.138-7-7.006V7.006z" fill-rule="nonzero"/></g></g></svg>
