<?xml version="1.0" encoding="utf-8"?>
<!-- Generator: Adobe Illustrator 16.0.4, SVG Export Plug-In . SVG Version: 6.00 Build 0)  -->
<!DOCTYPE svg PUBLIC "-//W3C//DTD SVG 1.1//EN" "http://www.w3.org/Graphics/SVG/1.1/DTD/svg11.dtd">
<svg version="1.1" id="Layer_1" xmlns="http://www.w3.org/2000/svg" xmlns:xlink="http://www.w3.org/1999/xlink" x="0px" y="0px"
	 width="240px" height="240px" viewBox="0 0 240 240" enable-background="new 0 0 240 240" xml:space="preserve">
<g>
	<g>
		<path fill="#333333" d="M180.584-0.233L59,0c-8.714,0-15,6.956-15,16v208c0,9.043,6.286,16,15,16l121.584,0.233
			c8.715,0,15.416-7.19,15.416-16.233V16C196,6.956,189.299-0.233,180.584-0.233z M120,220c-4.418,0-8-3.582-8-8s3.582-8,8-8
			c4.418,0,8,3.582,8,8S124.418,220,120,220z M168,185c0,5.425-5.248,11-11,11H82c-5.608,0-9.93-4.831-9.93-10.439L72,38
			c-0.274-2.406,0.387-5.174,2-7c1.862-2.108,5-3,8-3h76c4.751,0,10,4.116,10,10V185z"/>
	</g>
</g>
</svg>
