<svg xmlns="http://www.w3.org/2000/svg" width="48" height="48" viewBox="0 0 48 48">
    <g fill="none" fill-rule="evenodd">
        <path d="M0 0h48v48H0z"/>
        <path fill="#006C7C" d="M28.875 19.297l-3.425 3.385-3.426-3.385a.662.662 0 0 0-.928 0 .643.643 0 0 0 0 .917l3.426 3.385-3.426 3.385a.643.643 0 0 0 0 .917.658.658 0 0 0 .928 0l7.78-7.687a.643.643 0 0 0 0-.917.662.662 0 0 0-.929 0zm6.788 3.229a7.838 7.838 0 0 1 0 11.165A8.015 8.015 0 0 1 30.013 36a8.015 8.015 0 0 1-5.65-2.309l-5.6-5.534a6.4 6.4 0 0 1 0-9.116l.573-.566-3.544-3.501a2.367 2.367 0 0 0-3.315 0 2.287 2.287 0 0 0-.686 1.637c0 .62.244 1.2.686 1.638l1.886 1.864a3.568 3.568 0 0 1 1.071 2.554c0 .965-.38 1.873-1.07 2.555a3.692 3.692 0 0 1-5.172 0 .643.643 0 0 1 0-.917.662.662 0 0 1 .928 0 2.367 2.367 0 0 0 3.315 0c.443-.437.687-1.019.687-1.638 0-.618-.244-1.2-.687-1.638l-1.886-1.863a3.568 3.568 0 0 1-1.07-2.555c0-.965.38-1.872 1.07-2.555a3.692 3.692 0 0 1 5.172 0l3.543 3.502.573-.567c2.544-2.513 6.682-2.513 9.226 0l5.6 5.535z"/>
    </g>
</svg>
