<svg width="48" height="48" viewBox="0 0 48 48" xmlns="http://www.w3.org/2000/svg"><title>8970DDDE-778D-46E9-9B84-C11C38D74281</title><path d="M24.575 20.981a.423.423 0 0 1 .821-.202c.004.013.157.61.51 1.218l.787.957c.306.262.56.364.838.456a.423.423 0 0 1-.262.804c-.462-.152-.968-.362-1.614-1.11-.771-.894-1.067-2.073-1.08-2.123m2.477-1.402a.423.423 0 0 1 .108-.588l.985-.678a.424.424 0 0 1 .341-.062l.804.2a.423.423 0 1 1-.203.82l-.62-.153-.828.57a.422.422 0 0 1-.587-.11m6.728 15.795c-2.999-3.528-4.352-5.106-4.98-5.81h.001a.4.4 0 0 0 .112-.083.39.39 0 0 0 .068-.093l.004-.006c.004-.005.005-.012.007-.019a.399.399 0 0 0 .02-.053.486.486 0 0 0 .015-.086l.002-.033a.382.382 0 0 0-.005-.052l-.006-.036c0-.004 0-.008-.002-.012-.003-.014-.01-.027-.015-.04-.003-.008-.004-.017-.008-.025l-.463-1.019a.41.41 0 0 0-.255-.223 29.199 29.199 0 0 0-.58-.168l.282-.96c.263.053.656.116 1.182.155.654.049 1.131-.065 1.461-.351.376-.326.451-.782.475-1.143.04-.575-.173-.932-.358-1.13a1.497 1.497 0 0 0-.67-.404l.411-2.005c.135.005.256.008.362.008.714 0 .791-.11.881-.236.256-.36.054-.891-1.026-2.707-.072-.12-.141-.237-.185-.314-.043-1.617-.258-2.793-.641-3.516a1.2 1.2 0 0 0 .746-.725c.22-.586-.001-1.307-.502-1.64-.491-.328-3.583-1.962-6.421-1.83-1.768.084-4.989 1.336-6.108 4.342a.31.31 0 0 0-.013.042c-1.095 4.298 1.786 8.027 2.61 8.983l-.005.013c-.821 1.44-4.566 8.052-5.906 11.22C11.042 32.66 8.99 28.567 8.99 24c0-8.277 6.733-15.01 15.01-15.01 8.277 0 15.01 6.733 15.01 15.01 0 4.543-2.031 8.618-5.23 11.373m-6.133-6.919l.214.062.178.393c-.041.014-.075.03-.11.045l-1.494.396-.038-.642 1.062-.169a.408.408 0 0 0 .188-.085M22.882 13.64a.41.41 0 1 0-.195.796c.053.013.932.226 1.854.2h.007c0 .003 0 .007.002.01.077.217.093.503.054.574-.54.763-.178 1.401.017 1.744l.067.12c.083.157.127.287-.06.532-.41.533-.58 1.5-.138 2.134a.422.422 0 1 0 .693-.484c-.2-.286-.1-.855.116-1.135.532-.695.234-1.257.136-1.442a6.337 6.337 0 0 0-.079-.142c-.197-.347-.282-.528-.062-.84.262-.369.173-.906.103-1.178.122-.03.241-.065.354-.112.68-.28 2.09.194 2.735.482.058.053.13.088.209.1l.066.037a.41.41 0 0 0 .162.053c.233.217.712.974.769 3.558a.41.41 0 0 0 .042.174c.04.077.114.19.256.428.198.333.723.989.927 1.687h-.003c-.41 0-1.113-.028-1.715-.082a.413.413 0 0 0-.445.38.413.413 0 0 0 .372.447c.19.017.363.034.525.046l-.148.722-.024.116h-.572a.465.465 0 0 0 0 .93h.382l-.11.537a.41.41 0 0 0 .4.492c.075 0 .387.038.558.222.11.118.155.286.14.516-.02.309-.077.476-.194.578-.152.131-.45.184-.863.153a8.768 8.768 0 0 1-1.049-.136.42.42 0 0 0-.147-.089l-.17-.058c-.728-.25-1.553-.532-2.846-1.6-1.273-1.05-1.486-2.735-1.488-2.75a.423.423 0 0 0-.31-.361c-.51-.137-.864-.386-1.056-.74-.194-.36-.215-.84-.058-1.316.07-.212.172-.348.315-.417.227-.109.532-.038.631 0a.424.424 0 0 0 .303-.79c-.07-.028-.7-.256-1.293.025-.247.117-.58.371-.76.917-.229.697-.186 1.42.118 1.983.265.49.717.856 1.317 1.072.121.598.526 2.025 1.742 3.03 1.193.984 2.05 1.366 2.742 1.618l-.012.009-.282.963a370.152 370.152 0 0 1-5.827-3.183.407.407 0 0 0-.107-.32c-.038-.04-3.74-3.98-2.622-8.424.936-2.482 3.7-3.71 5.37-3.788 2.387-.113 5.22 1.22 5.927 1.692.184.123.275.442.19.67-.099.262-.39.307-.647.288a.97.97 0 0 0-.303-.098c-.7-.322-2.409-.963-3.46-.531-.757.31-2.101.092-2.556-.02m-7.95 22.314c1.118-2.76 4.694-9.123 5.789-11.051.422.241 1.248.7 2.898 1.602 1.303.713 2.096 1.143 2.588 1.404l-.307.049a.41.41 0 0 0-.345.43l.09 1.513a.41.41 0 0 0 .515.372l.685-.181 2.972 6.484a.41.41 0 1 0 .745-.342l-2.912-6.356.273-.072c.63.703 3.26 3.78 5.221 6.088a14.969 14.969 0 0 1-5.151 2.575c-.068-3.56-1.977-7.892-3.285-9.34-2.486-2.752-2.877-3.04-3.104-3.115a.41.41 0 0 0-.286.768c.17.104.794.697 2.78 2.896 1.06 1.174 3.05 5.27 3.077 8.919v.075c-.506.109-1.02.193-1.542.25-.511-3.634-1.274-4.913-3.485-6.787l1.537-.05a.41.41 0 0 0 .365-.569c-.416-.992-3.556-4.25-4.098-4.25a.41.41 0 0 0-.157.79c.36.244 2.322 2.088 3.164 3.232l-1.927.063a.41.41 0 0 0-.243.73c2.595 2.077 3.458 2.935 4.025 6.909a14.93 14.93 0 0 1-9.882-3.036M24 8C15.178 8 8 15.178 8 24s7.178 16 16 16 16-7.178 16-16S32.822 8 24 8" fill="#01803F" fill-rule="evenodd"/></svg>