<?xml version="1.0" encoding="utf-8"?>
<!-- Generator: Adobe Illustrator 16.0.4, SVG Export Plug-In . SVG Version: 6.00 Build 0)  -->
<!DOCTYPE svg PUBLIC "-//W3C//DTD SVG 1.1//EN" "http://www.w3.org/Graphics/SVG/1.1/DTD/svg11.dtd">
<svg version="1.1" id="Layer_1" xmlns="http://www.w3.org/2000/svg" xmlns:xlink="http://www.w3.org/1999/xlink" x="0px" y="0px"
	 width="240px" height="240px" viewBox="0 0 240 240" enable-background="new 0 0 240 240" xml:space="preserve">
<g>
	<path d="M114.507,78.853c-3.313,0-6,2.687-6,6s2.687,6,6,6c19.657,0,35.649,15.995,35.649,35.655
		c0,3.313,2.687,6,6,6s6-2.687,6-6C162.156,100.231,140.781,78.853,114.507,78.853z"/>
	<path d="M188.164,138.035c3.313,0,6-2.687,6-6c0-22.983-8.973-44.49-25.267-60.558
		c-16.22-15.996-37.846-24.805-60.895-24.805c-3.313,0-6,2.687-6,6s2.687,6,6,6c19.875,0,38.509,7.582,52.469,21.349
		c13.988,13.794,21.692,32.267,21.692,52.013C182.164,135.349,184.851,138.035,188.164,138.035z"/>
	<path d="M101.842,16c-3.314,0-6,2.687-6,6s2.686,6,6,6C162.583,28,212,77.425,212,138.176c0,3.313,2.687,6,6,6
		s6-2.687,6-6C224,70.808,169.2,16,101.842,16z"/>
	<path d="M198.645,179.696l-32.199-29.581c-3.502-3.391-8.002-5.253-12.711-5.253c-4.7,0-9.198,1.858-12.698,5.241
		l-12.697,11.613c-6.633-3.738-18.772-11.429-30.774-23.404c-11.023-11-17.84-22.155-20.927-27.837l8.548-9.162
		c4.122-4.219,6.481-10.277,6.481-16.666c0-6.548-3.055-12.977-8.203-17.327L56.567,41.514l-0.771-0.74l-0.889-0.592
		c-2.6-1.73-6.16-4.099-10.836-4.099c-6.111,0-11.358,3.499-13.539,8.451c-3.884,6.67-12.708,24.33-14.097,38.816
		c-3.514,28.694,10.799,57.339,46.379,92.845c43.031,42.939,74.142,47.906,93.8,47.906c15.212,0,30.52-12.306,42.155-23.023
		l0.168-0.155c3.145-2.516,5.011-6.335,5.011-10.499C203.948,186.131,201.966,182.206,198.645,179.696z"/>
</g>
</svg>
