<svg xmlns="http://www.w3.org/2000/svg" width="240" height="240" viewBox="0 0 240 240"><path fill="none" stroke="#333" stroke-width="12" stroke-linejoin="round" stroke-miterlimit="10" d="M217.977 217.977c-4.889-31.387-54.415-76.133-68.279-82.649l-2.545-1.208c-.475-.229-.774-.447-.935-.59.108-.357.472-1.215 1.655-2.555l1.201-1.349c7.945-8.887 21.245-23.759 21.763-49.74.546-27.25-19.263-57.413-49.62-58.878l-.032-.002-2.155.006-.058.001C88.769 22.478 69.064 52.637 69.61 79.886c.517 25.944 13.809 40.831 21.762 49.737l1.208 1.357c1.19 1.34 1.554 2.195 1.664 2.553-.16.141-.461.359-.942.589l-1.947.93c-14.152 6.724-63.994 51.538-69.361 82.925.016-.301 195.983 0 195.983 0z"/></svg>