<svg xmlns="http://www.w3.org/2000/svg" xmlns:xlink="http://www.w3.org/1999/xlink" width="91" height="40" viewBox="0 0 80 30">
  
        <path id="a" d="M59.801 14.736v1.225c0 .387.1.724.3 1.013.2.29.465.531.792.727a3.9 3.9 0 0 0 1.124.44c.222.051.448.088.676.113v2h1.613V18.2a5.4 5.4 0 0 0 .348-.072c.44-.107.835-.279 1.182-.518.348-.239.628-.548.84-.929.214-.38.32-.841.32-1.384 0-.3-.037-.57-.114-.81a2.24 2.24 0 0 0-.795-1.132 4.392 4.392 0 0 0-.6-.392 5.777 5.777 0 0 0-.68-.313c-.24-.09-.48-.18-.724-.267a31.38 31.38 0 0 1-.625-.231 2.99 2.99 0 0 1-.528-.258 1.394 1.394 0 0 1-.366-.322.683.683 0 0 1-.136-.427.545.545 0 0 1 .31-.512 1.1 1.1 0 0 1 .325-.107 2.381 2.381 0 0 1 .818.003c.135.024.254.06.355.108a.678.678 0 0 1 .242.179.388.388 0 0 1 .088.251v.6h2.137v-1.415c0-.303-.092-.57-.276-.798a2.21 2.21 0 0 0-.734-.573 3.944 3.944 0 0 0-1.04-.346 5.63 5.63 0 0 0-.347-.057V6.606h-1.613v1.867a5.98 5.98 0 0 0-.487.085 3.204 3.204 0 0 0-1.098.463 2.448 2.448 0 0 0-.782.86c-.198.357-.296.8-.296 1.329 0 .44.069.812.208 1.118.14.306.326.57.557.788.233.22.5.405.803.554.301.15.614.287.941.407.247.1.494.195.74.28.244.088.466.181.661.281.195.1.353.214.473.338a.65.65 0 0 1 .178.464.604.604 0 0 1-.094.336.759.759 0 0 1-.264.244 1.353 1.353 0 0 1-.404.146c-.156.033-.328.05-.515.05s-.364-.018-.531-.053a1.67 1.67 0 0 1-.436-.15.89.89 0 0 1-.297-.24.532.532 0 0 1-.11-.333v-.704H59.8zM63.4 2.98c-3.68 0-7.073 1.937-8.963 5.077.136.004.27.009.401.015.083.005.172.007.252.013.08.006.157.02.236.028A9.678 9.678 0 0 1 63.4 3.763c5.335 0 9.676 4.341 9.676 9.677 0 5.336-4.341 9.678-9.676 9.678a9.647 9.647 0 0 1-8.219-4.576 9.678 9.678 0 0 1-.874.057 10.432 10.432 0 0 0 9.093 5.302c5.767 0 10.46-4.692 10.46-10.46 0-5.77-4.693-10.462-10.46-10.462zM15.162 16.254H13.11v-2h2.788v-1.87H13.11v-1.936h1.895v.952h2V8.584H9.65v1.734h1.069v6.073h-1.07v1.733h7.514V15.31h-2v.945zm-9.733-3.643c-.219.196-.513.294-.887.294H3.46v-2.457h.854c.386 0 .693.054.92.163a.854.854 0 0 1 .416.436c.039.092.066.19.082.297.014.106.023.214.023.323 0 .434-.11.749-.326.944zm2.714 3.712a.527.527 0 0 1-.238-.238l-.736-1.415a1.379 1.379 0 0 0-.372-.442 1.249 1.249 0 0 0-.215-.13v-.033c.474-.252.85-.594 1.13-1.024.28-.43.421-.96.421-1.59 0-.352-.045-.671-.137-.961a2.638 2.638 0 0 0-.387-.772 2.534 2.534 0 0 0-.604-.58 2.839 2.839 0 0 0-.781-.372 4.282 4.282 0 0 0-.89-.15c-.32-.02-.66-.032-1.02-.032H0v1.734H1.07v6.073H0v1.733h4.457v-1.733H3.46v-1.616h.482c.122 0 .226.007.313.02a.673.673 0 0 1 .222.068c.06.033.114.075.16.127a.937.937 0 0 1 .127.195l1.167 2.23c.065.13.136.24.21.331a.856.856 0 0 0 .272.22c.104.053.225.093.364.12.14.026.307.038.502.038h1.57v-1.733h-.332a.886.886 0 0 1-.374-.068zm47.978-1.33a2.556 2.556 0 0 1-.184.312c-.204.297-.46.525-.768.681-.216.101-.44.17-.672.21-.224.038-.48.057-.765.058h-.714v-5.806h.692l.072.002c.214.002.415.012.596.034.202.023.406.079.615.166a2.06 2.06 0 0 1 .876.681c.067.089.132.182.19.283.128.227.226.486.296.78.07.293.105.615.105.967 0 .634-.113 1.178-.339 1.632zm2.574-3.294a4.593 4.593 0 0 0-.658-1.332 4.114 4.114 0 0 0-1.286-1.157 4.496 4.496 0 0 0-1.957-.594c-.072-.005-.152-.007-.228-.011-.254-.013-.52-.02-.805-.02h-4.203v1.733h1.069v6.073h-1.069v1.733h4.224a11.377 11.377 0 0 0 1.202-.065 4.876 4.876 0 0 0 1.078-.254 4.515 4.515 0 0 0 1.184-.658c.354-.278.655-.607.905-.987s.442-.808.576-1.28c.135-.474.202-.985.202-1.532 0-.6-.077-1.15-.234-1.65zm-27.474-1.381V8.584h-4.23v1.734H28.1l-.88 4.229a3.667 3.667 0 0 0-.061.355 8.06 8.06 0 0 0-.036.323 4.477 4.477 0 0 0-.026.325h-.052a5.986 5.986 0 0 0-.086-.648 4.49 4.49 0 0 0-.077-.355l-1.467-5.963H23.57l-1.466 5.963c-.031.117-.055.236-.076.355-.019.12-.036.227-.049.323a3.437 3.437 0 0 0-.032.325h-.059a12.218 12.218 0 0 0-.062-.648 6.796 6.796 0 0 0-.055-.355l-.88-4.23h1.108V8.585h-4.23v1.734h.796l1.895 7.806h2.634l1.213-4.887c.03-.113.055-.232.078-.359.021-.125.039-.238.051-.338.018-.117.028-.235.033-.352h.052c.005.117.016.235.033.352.013.1.03.213.049.338.02.127.044.246.075.359l1.218 4.887h2.627l1.896-7.806h.802zm2.525 2.99l.509-1.766a6.493 6.493 0 0 0 .15-.716 2.96 2.96 0 0 0 .032-.28h.058c.006.083.016.176.034.28a7.274 7.274 0 0 0 .15.716l.495 1.767h-1.428zm2.08-4.724h-2.718L30.5 16.391h-.788v1.733h3.994v-1.733h-.827l.357-1.27h2.457l.359 1.27h-.827v1.733h3.994v-1.733h-.788l-2.607-7.807zm9.512 4.027c-.217.196-.514.294-.887.294H43.37v-2.457h.854c.387 0 .693.054.919.163.104.052.189.115.257.189.067.074.12.156.16.247.039.092.065.19.081.297.015.106.022.214.022.323 0 .434-.108.749-.325.944zm2.715 3.712a.52.52 0 0 1-.238-.238l-.737-1.415a1.329 1.329 0 0 0-.183-.263 1.491 1.491 0 0 0-.19-.18 1.276 1.276 0 0 0-.213-.13v-.032c.472-.252.85-.594 1.13-1.024.28-.43.42-.96.42-1.59 0-.352-.045-.671-.137-.961a2.512 2.512 0 0 0-.99-1.352 2.82 2.82 0 0 0-.782-.372 4.275 4.275 0 0 0-.889-.15c-.32-.02-.66-.032-1.02-.032h-4.315v1.734h1.069v6.073h-1.069v1.733h4.458v-1.733h-.997v-1.616h.482c.122 0 .226.007.313.02a.663.663 0 0 1 .22.068.558.558 0 0 1 .16.127.903.903 0 0 1 .128.195l1.167 2.23c.065.13.135.24.212.331a.861.861 0 0 0 .27.22c.104.053.226.093.365.12.138.026.306.038.502.038h1.57v-1.733h-.332a.887.887 0 0 1-.374-.068zM30.749 4.516L29.125.108h1.235l.963 3.054.997-3.054h1.213l-1.668 4.408V7.33h-1.116V4.516zM25.616.108h3.27v1.03h-2.154v1.905h1.592v1.029h-1.592v2.23h2.155v1.03h-3.27V.107zm-4.721 0h1.126l1.82 4.494V.108h1.06v7.223h-.996l-1.949-4.808v4.808h-1.061V.108zm-4.722 0H17.3l1.819 4.494V.108h1.061v7.223h-.996l-1.95-4.808v4.808h-1.06V.108zm-3.876 0h3.27v1.03h-2.155v1.905h1.592v1.029h-1.592v2.23h2.155v1.03h-3.27V.107zM9.35 3.378c.448 0 .756-.08.926-.243.17-.162.254-.457.254-.882 0-.419-.084-.71-.254-.872-.17-.163-.478-.244-.926-.244h-.487V3.38h.487zM7.748.109H9.6c.368 0 .672.037.91.109.238.072.44.19.606.357.383.36.574.92.574 1.679 0 .765-.191 1.328-.574 1.689a1.43 1.43 0 0 1-.606.357c-.238.072-.542.108-.91.108h-.736v2.924H7.748V.108zm-.78 4.7v.25c0 .786-.165 1.38-.497 1.78-.332.401-.827.602-1.484.602-.368 0-.69-.069-.964-.206a1.565 1.565 0 0 1-.65-.596 2.365 2.365 0 0 1-.167-.336 1.877 1.877 0 0 1-.109-.395 4.557 4.557 0 0 1-.054-.514c-.01-.195-.016-.426-.016-.693V2.675c0-.289.005-.535.016-.737.011-.202.033-.377.065-.525a1.88 1.88 0 0 1 .13-.395A1.97 1.97 0 0 1 3.45.671c.159-.216.369-.382.628-.498.26-.115.56-.173.9-.173.62 0 1.102.193 1.445.58.343.386.514.936.514 1.65v.217H5.821v-.151c0-.838-.282-1.256-.845-1.256-.318 0-.538.12-.66.358a.928.928 0 0 0-.087.18c-.022.061-.04.132-.054.212a1.95 1.95 0 0 0-.027.277c-.004.105-.006.23-.006.375v2.414c0 .276.01.493.027.653.018.159.05.3.093.423.057.146.15.26.276.343a.777.777 0 0 0 .438.125c.426 0 .693-.249.801-.747.022-.087.036-.186.044-.298.007-.112.014-.294.022-.547h1.126zM.05 6.292h.26c.274 0 .466-.058.574-.174.108-.116.162-.325.162-.629V.109h1.116v5.457c0 .188-.006.352-.016.493-.011.14-.03.264-.055.368a1.318 1.318 0 0 1-.097.276c-.04.08-.088.155-.146.228-.217.267-.592.4-1.127.4H.05v-1.04z"/>

</svg>
