<svg xmlns="http://www.w3.org/2000/svg" xmlns:xlink="http://www.w3.org/1999/xlink" width="48" height="48" viewBox="0 0 48 48">
        <path id="a" d="M7.716 2.783h8.846V0h1.048v2.783h6.616v11.97l-1.102-.282V3.896H17.61v2.867h-1.048V3.896H7.716v2.867H6.67V3.896H1.353v21.985h12.952l.552 1.114H.25V2.783h6.418V0h1.047v2.783zM21.991 30c-3.913 0-7.082-3.2-7.082-7.152s3.17-7.152 7.082-7.152c3.914 0 7.083 3.2 7.083 7.152S25.904 30 21.99 30zm0-13.247c-3.334 0-6.035 2.728-6.035 6.095 0 3.367 2.7 6.095 6.035 6.095s6.036-2.728 6.036-6.095c0-3.367-2.701-6.095-6.036-6.095zm2.784 6.707h-2.949l-3.004-3.618.8-.695 2.7 3.228h2.453v1.085zM9.067 9.1h1.185v1.058H9.067V9.1zm2.48 0h1.185v1.058h-1.185V9.1zm2.48 0h1.185v1.058h-1.185V9.1zm2.535 0h1.185v1.058h-1.185V9.1zm2.398 0h1.185v1.058H18.96V9.1zM4.134 11.855h1.185v1.058H4.134v-1.058zm2.48 0h1.185v1.058H6.614v-1.058zm2.453 0h1.185v1.058H9.067v-1.058zm2.48 0h1.185v1.058h-1.185v-1.058zm2.48 0h1.185v1.058h-1.185v-1.058zm2.535 0h1.185v1.058h-1.185v-1.058zm2.398 0h1.185v1.058H18.96v-1.058zM4.134 14.638h1.185v1.058H4.134v-1.058zm2.48 0h1.185v1.058H6.614v-1.058zm2.453 0h1.185v1.058H9.067v-1.058zm2.48 0h1.185v1.058h-1.185v-1.058zm-7.413 2.755h1.185v1.058H4.134v-1.058zm2.48 0h1.185v1.058H6.614v-1.058zm2.453 0h1.185v1.058H9.067v-1.058zM4.134 20.15h1.185v1.057H4.134V20.15zm2.48 0h1.185v1.057H6.614V20.15zm2.453 0h1.185v1.057H9.067V20.15zm2.48-2.756h1.185v1.058h-1.185v-1.058zm2.508 0h1.185v1.058h-1.185v-1.058zm-.028-2.755h1.185v1.058h-1.185v-1.058zm2.535 0h1.185v1.058h-1.185v-1.058zm-5.07 5.51h1.185v1.058h-1.185V20.15z"/>
</svg>
