<?xml version="1.0" encoding="UTF-8" standalone="no"?>
<svg width="48px" height="48px" viewBox="0 0 48 48" version="1.1" xmlns="http://www.w3.org/2000/svg" xmlns:xlink="http://www.w3.org/1999/xlink">
    <!-- Generator: sketchtool 43 (38999) - http://www.bohemiancoding.com/sketch -->
    <title>85F697B5-F536-4132-B990-CC10B3C15B14</title>
    <desc>Created with sketchtool.</desc>
    <defs></defs>
    <g id="Symbols" stroke="none" stroke-width="1" fill="none" fill-rule="evenodd">
        <g id="icon/dark/local-ad" fill="#384048">
            <path d="M35.1333333,16.0909091 L15.0666667,16.0909091 C14.06905,16.0909091 13.3166667,16.82375 13.3166667,17.7954545 L13.3166667,33.8181818 C13.3166667,34.8311364 14.09215,35.6246591 15.0821833,35.6246591 L35.1325167,35.6363636 C36.1392333,35.6363636 36.9890333,34.8222727 36.9890333,33.8585227 L36.9890333,17.8170455 C36.9890333,16.8652273 36.1566167,16.0909091 35.1333333,16.0909091 L35.1333333,16.0909091 Z M24.1666667,31.0909091 C24.1666667,31.5454545 23.9333333,32 23.2333333,32 L17.6333333,32 C16.9333333,32 16.7,31.5454545 16.7,31.0909091 L16.7,20.6363636 C16.7,20.0681818 17.05,19.7272727 17.6333333,19.7272727 L23.2333333,19.7272727 C23.8166667,19.7272727 24.1666667,20.0681818 24.1666667,20.6363636 L24.1666667,31.0909091 L24.1666667,31.0909091 Z M33.0333333,32 L26.5,32 C26.1134833,32 25.8,31.6946591 25.8,31.3181818 C25.8,30.9417045 26.1134833,30.6363636 26.5,30.6363636 L33.0333333,30.6363636 C33.41985,30.6363636 33.7333333,30.9417045 33.7333333,31.3181818 C33.7333333,31.6946591 33.41985,32 33.0333333,32 L33.0333333,32 Z M33.0333333,29.8409091 L26.5,29.8409091 C26.1134833,29.8409091 25.8,29.5355682 25.8,29.1590909 C25.8,28.7826136 26.1134833,28.4772727 26.5,28.4772727 L33.0333333,28.4772727 C33.41985,28.4772727 33.7333333,28.7826136 33.7333333,29.1590909 C33.7333333,29.5355682 33.41985,29.8409091 33.0333333,29.8409091 L33.0333333,29.8409091 Z M33.0333333,27.6818182 L26.5,27.6818182 C26.1134833,27.6818182 25.8,27.3764773 25.8,27 C25.8,26.6235227 26.1134833,26.3181818 26.5,26.3181818 L33.0333333,26.3181818 C33.41985,26.3181818 33.7333333,26.6235227 33.7333333,27 C33.7333333,27.3764773 33.41985,27.6818182 33.0333333,27.6818182 L33.0333333,27.6818182 Z M33.7333333,24.6136364 C33.7333333,24.9820455 33.41145,25.2954545 33.0333333,25.2954545 L26.5,25.2954545 C26.1091667,25.2954545 25.8,24.9944318 25.8,24.6136364 L25.8,20.5227273 C25.8,20.0935227 26.1761333,19.7272727 26.6166667,19.7272727 L33.0333333,19.7272727 C33.4157667,19.7272727 33.7333333,20.1502273 33.7333333,20.5227273 L33.7333333,24.6136364 Z M31.4056,15.4090909 L19.86365,15.4090909 C23.8113,13.8585227 28.0397667,12.1679545 28.0881833,12.1486364 L28.0915667,12.1472727 L28.0950667,12.1459091 C28.3120667,12.0603409 28.5406167,12.0170455 28.7743,12.0170455 C29.5171167,12.0170455 30.1771,12.4503409 30.4559333,13.1213636 L31.4056,15.4090909 Z M12.6166667,18.1851136 L12.6166667,29.6340909 L9.168,21.4471591 L9.1652,21.4405682 C8.79058333,20.5377273 9.23975,19.50625 10.1708667,19.1394318 L12.6166667,18.1851136 Z" id="local-ad-fill"></path>
        </g>
    </g>
</svg>