<?xml version="1.0" encoding="utf-8"?>
<!-- Generator: Adobe Illustrator 20.1.0, SVG Export Plug-In . SVG Version: 6.00 Build 0)  -->
<svg version="1.1" id="Layer_1" xmlns="http://www.w3.org/2000/svg" xmlns:xlink="http://www.w3.org/1999/xlink" x="0px" y="0px"
	 viewBox="0 0 48 48" style="enable-background:new 0 0 48 48;" xml:space="preserve">
<title>Gallery - Video Icon - Lg + XL</title>
<desc>Created with Sketch.</desc>
<g id="Circle">
	<g>
		<circle id="path-1" fill="#FFFFFF" fill-opacity="0.8" cx="24" cy="24" r="12"/>
	</g>
	<path fill="#384048" d="M24,36c-6.6,0-12-5.4-12-12c0-6.6,5.4-12,12-12c6.6,0,12,5.4,12,12C36,30.6,30.6,36,24,36z M24,14
		c-5.5,0-10,4.5-10,10c0,5.5,4.5,10,10,10c5.5,0,10-4.5,10-10C34,18.5,29.5,14,24,14z"/>
</g>
<g id="icon_x2F_ALL_x2F_play" transform="translate(13.666667, 13.666667)">
	<g id="Icon" transform="translate(7.083333, 5.416667)">
		<g id="Mask">
			<path id="path-2_1_" fill="#384048" d="M7.3,4.4L0.7,0.1C0.6,0,0.4,0,0.2,0.1C0.1,0.1,0,0.3,0,0.5l0,8.7c0,0.2,0.1,0.3,0.2,0.4
				c0.1,0,0.1,0.1,0.2,0.1c0.1,0,0.2,0,0.3-0.1l6.5-4.3c0.1-0.1,0.2-0.2,0.2-0.4C7.5,4.6,7.4,4.5,7.3,4.4"/>
		</g>
	</g>
</g>
</svg>
